<svg viewBox="0 0 32 32" xml:space="preserve" xmlns="http://www.w3.org/2000/svg"><path d="M1.911 16.179c-1.084.568-1.039 1.4.098 1.852l3.364 1.331c1.137.449 2.856.204 3.821-.55L23.806 7.289c.961-.757 1.064-.645.229.249L12.483 19.902c-.837.892-.59 1.984.55 2.425l.394.154c1.14.44 3 1.182 4.132 1.642l3.732 1.521c1.133.46 2.06.842 2.062.849.001.007.006.028.012.03s.273-.962.594-2.141l5.688-20.908c.321-1.18-.302-1.681-1.385-1.113L1.911 16.179zM11.146 29.864c-.067.199 2.301-3.429 2.301-3.429.669-1.022.29-2.241-.842-2.703l-2.582-1.058c-1.132-.463-1.674.08-1.205 1.212 0 .001 2.396 5.774 2.328 5.978z" fill="#000000" class="fill-515151"></path></svg>